<svg xmlns="http://www.w3.org/2000/svg" xmlns:xlink="http://www.w3.org/1999/xlink" fill="none" version="1.1" width="546" height="546" viewBox="0 0 546 546"><defs><clipPath id="master_svg0_25_89"><rect x="0" y="0" width="546" height="546" rx="0"/></clipPath></defs><g clip-path="url(#master_svg0_25_89)"><rect x="0" y="0" width="546" height="546" rx="120" fill="#1A1F3E" fill-opacity="1" style="mix-blend-mode:passthrough"/><path d="M391.000007515625,149.29213L391.000007515625,105.73149389C391.000007515625,105.063699469,390.177871515625,104.74590212,389.734642515625,105.24149799L309.034657515625,195.208946C303.255891815625,201.661491,299.942154415625,209.94382000000002,299.690478315625,218.61256L294.740478515625,392.01932C294.718474702625,392.78229,295.723781405625,393.06369,296.101295715625,392.41272L306.164150515625,374.92825C307.355417515625,372.87585,308.124428515625,370.61627,308.450209515625,368.26151L322.841894515625,262.62538C324.935001515625,247.26752,331.846309515625,232.96242999999998,342.588691515625,221.79053L375.691108515625,187.34101099999998C385.51766251562503,177.10990099999998,391.000007515625,163.471214,391.000007515625,149.29213Z" fill-rule="evenodd" fill="#FFFFFF" fill-opacity="1" style="mix-blend-mode:passthrough"/><path d="M153,149.29213L153,105.73149389C153,105.063699469,153.82913333,104.74590212,154.2723632,105.24149799L234.972343,195.208946C240.751114,201.661491,244.066246,209.94382000000002,244.309532,218.61256L249.267921,392.01932C249.28992499999998,392.78229,248.283218,393.06369,247.905708,392.41272L237.835861,374.92825C236.651588,372.87585,235.882576,370.61627,235.556793,368.26151L221.166504,262.62538C219.071999,247.26752,212.16209,232.96242999999998,201.41831200000001,221.79053L168.315896,187.34101099999998C158.4893379,177.10990099999998,153,163.471214,153,149.29213Z" fill-rule="evenodd" fill="#FFFFFF" fill-opacity="1" style="mix-blend-mode:passthrough"/><path d="M282.373155578125,202.9212570390625L272.961862578125,194.7579245890625C272.406776578125,194.2833285290625,271.593023578125,194.2833285290625,271.044928578125,194.7579245890625L261.633635778125,202.9212570390625C259.976767178125,204.3590450390625,259.052556157125,206.4618275390625,259.111280611025,208.6626095390625L265.422760978125,429.4393575390625C265.436743278125,430.0469675390625,265.607323678125,430.63915753906247,265.910733178125,431.1655575390625L271.370709578125,440.6336775390625C271.651747578125,441.1222675390625,272.355042578125,441.1222675390625,272.636081578125,440.6336775390625L278.096057578125,431.1655575390625C278.399467578125,430.63915753906247,278.563056578125,430.0469675390625,278.585428578125,429.4393575390625L284.89550957812503,208.6626095390625C284.955633578125,206.4702275390625,284.030023578125,204.3590450390625,282.373155578125,202.9212570390625Z" fill-rule="evenodd" fill="#FFFFFF" fill-opacity="1" style="mix-blend-mode:passthrough"/></g></svg>